Allegiance (2012) BRRip

Screens:
 
http://img843.imageshack.us/img843/5361/vlcsnap2013010600h43m55.png
 
http://img339.imageshack.us/img339/2566/vlcsnap2013010600h45m01.png
 
http://img856.imageshack.us/img856/588/vlcsnap2013010600h46m12.png

[General]
Format: AVI
Format/Info: Audio Video Interleave
File size: 699 MiB
Duration: 1h 31mn
Overall bit rate: 1 074 Kbps

[Video]
Format: xvid
Codec ID: xvid
Duration: 1h 31mn
Bit rate: 933 Kbps
Width: 640 pixels
Height: 272 pixels
Display aspect ratio: 2.35:1
Frame rate: 23.976 fps
Bits/(Pixel*Frame): 0.224
Stream size: 608 MiB (87%)

[Audio]
Format: MPEG Audio
Format version: Version 1
Format profile: Layer 3
Mode: Joint stereo
Mode extension: MS Stereo
Codec ID: 55
Codec ID/Hint: MP3
Duration: 1h 31mn
Bit rate mode: Constant
Bit rate: 128 Kbps
Channel(s): 2 channels
Sampling rate: 48.0 KHz
Compression mode: Lossy
Stream size: 83.4 MiB (12%)
Alignment: Aligned on interleaves
Interleave, duration: 24 ms (0.58 video frame)